<svg width="512" height="512" viewBox="0 0 512 512" fill="none" xmlns="http://www.w3.org/2000/svg">
  <defs>
    <linearGradient id="animated-gradient" x1="0%" y1="0%" x2="100%" y2="100%">
      <stop offset="0%" stop-color="#6C5CE7">
        <animate attributeName="stop-color" values="#6C5CE7; #4834D4; #341f97; #6C5CE7" dur="8s" repeatCount="indefinite"></animate>
      </stop>
      <stop offset="100%" stop-color="#A29BFE">
        <animate attributeName="stop-color" values="#A29BFE; #74B9FF; #54a0ff; #A29BFE" dur="8s" repeatCount="indefinite"></animate>
      </stop>
    </linearGradient>
    <filter id="drop-shadow" x="-20%" y="-20%" width="140%" height="140%">
      <feGaussianBlur in="SourceAlpha" stdDeviation="5"/>
      <feOffset dx="4" dy="6" result="offsetblur"/>
      <feComponentTransfer>
        <feFuncA type="linear" slope="0.3"/>
      </feComponentTransfer>
      <feMerge> 
        <feMergeNode/>
        <feMergeNode in="SourceGraphic"/> 
      </feMerge>
    </filter>
  </defs>
  <rect width="512" height="512" rx="128" fill="url(#animated-gradient)"/>
  <g filter="url(#drop-shadow)">
    <path d="M100 130C100 130 180 155 256 130C332 155 412 130 412 130V340C412 340 332 365 256 340C180 365 100 340 100 340V130Z" fill="#FFFFFF"/>
    <path d="M256 130V340" stroke="#E0E0E0" stroke-width="10" stroke-linecap="round"/>
  </g>
  <g transform="translate(0, -20)">
    <circle cx="256" cy="240" r="65" fill="#F1F3F5"/>
    <path d="M256 175 A 32.5 32.5 0 0 1 256 240 A 32.5 32.5 0 0 0 256 305 A 65 65 0 1 1 256 175" fill="#d63031"/>
    <path d="M256 305 A 32.5 32.5 0 0 1 256 240 A 32.5 32.5 0 0 0 256 175 A 65 65 0 1 0 256 305" fill="#0984e3"/>
  </g>
  <text x="50%" y="430" text-anchor="middle" font-family="Pretendard, sans-serif" font-size="72" font-weight="900" fill="white" stroke="rgba(0,0,0,0.3)" stroke-width="3" letter-spacing="3">
    TOPIK
  </text>
  <text x="50%" y="480" text-anchor="middle" font-family="Pretendard, sans-serif" font-size="42" font-weight="800" fill="white" stroke="rgba(0,0,0,0.2)" stroke-width="1" letter-spacing="1">
    MASTER
  </text>
</svg>